<svg width="57" height="62" viewBox="0 0 57 62" fill="none" xmlns="http://www.w3.org/2000/svg">
<path d="M28.5 0C26.1296 0 23.7454 0.270397 21.9094 0.775683C20.0733 1.2796 18.895 2.09216 18.6483 2.59881C14.6748 10.5154 14.4144 20.43 14.4007 27.0396H42.5993C42.5856 20.43 42.3252 10.5154 38.3517 2.59881C38.105 2.09216 36.9267 1.2796 35.0906 0.775683C33.2546 0.270397 30.8704 0 28.5 0ZM0 18.8458V21.304H6.57692V18.8458H0ZM50.4231 18.8458V21.304H57V18.8458H50.4231ZM3.15144 23.8987V33.2943L7.42644 36.1348C7.64567 35.3154 8.00192 34.5507 8.42668 33.8542L5.61779 31.9833V23.8987H3.15144ZM51.3822 23.8987V31.9833L48.5733 33.8542C48.9981 34.5507 49.3543 35.3154 49.5736 36.1348L53.8486 33.2943V23.8987H51.3822ZM25.3486 29.4978V31.4097H31.6514V29.4978H25.3486ZM11.5233 33.8678C10.6738 34.8101 9.89279 36.1075 9.71466 37.2137C9.50913 38.4018 9.68726 39.2758 11.2767 40.1498H45.7233C47.3127 39.2758 47.4909 38.4018 47.2853 37.2137C47.1072 36.1075 46.3262 34.8101 45.4767 33.8678H11.5233ZM27.2668 42.6079V46.978L10.6601 51.1159L11.263 53.4921L27.2668 49.5044V53.3965C27.6642 53.3145 28.0752 53.2599 28.5 53.2599C28.9248 53.2599 29.3358 53.3145 29.7332 53.3965V49.5044L45.737 53.4921L46.3399 51.1159L29.7332 46.978V42.6079H27.2668ZM10.9615 55.7181C9.20769 55.7181 7.8101 57.111 7.8101 58.859C7.8101 60.6071 9.20769 62 10.9615 62C12.7154 62 14.113 60.6071 14.113 58.859C14.113 57.111 12.7154 55.7181 10.9615 55.7181ZM28.5 55.7181C26.7462 55.7181 25.3486 57.111 25.3486 58.859C25.3486 60.6071 26.7462 62 28.5 62C30.2538 62 31.6514 60.6071 31.6514 58.859C31.6514 57.111 30.2538 55.7181 28.5 55.7181ZM46.0385 55.7181C44.2846 55.7181 42.887 57.111 42.887 58.859C42.887 60.6071 44.2846 62 46.0385 62C47.7923 62 49.1899 60.6071 49.1899 58.859C49.1899 57.111 47.7923 55.7181 46.0385 55.7181Z" fill="#303030"/>
<path fill-rule="evenodd" clip-rule="evenodd" d="M29 0.0039978C28.8334 0.00134277 28.6667 0 28.5 0C26.1296 0 23.7454 0.270401 21.9094 0.775681C20.0733 1.2796 18.895 2.09216 18.6483 2.59882C14.6748 10.5154 14.4144 20.43 14.4007 27.0396H29V0.0039978ZM29 29.4978H25.3486V31.4097H29V29.4978ZM29 33.8678H11.5233C10.6738 34.8101 9.89279 36.1075 9.71466 37.2137C9.50914 38.4018 9.68726 39.2758 11.2767 40.1498H29V33.8678ZM29 42.6079H27.2668V46.978L10.6601 51.1159L11.263 53.4921L27.2668 49.5044V53.3965C27.6642 53.3145 28.0752 53.2599 28.5 53.2599C28.6688 53.2599 28.8355 53.2685 29 53.2841V42.6079ZM29 55.7565C28.8373 55.7312 28.6703 55.7181 28.5 55.7181C26.7462 55.7181 25.3486 57.111 25.3486 58.859C25.3486 60.6071 26.7462 62 28.5 62C28.6703 62 28.8373 61.9869 29 61.9615V55.7565ZM0 21.304V18.8458H6.57692V21.304H0ZM3.15144 33.2943V23.8987H5.61779V31.9833L8.42668 33.8542C8.00192 34.5507 7.64568 35.3154 7.42645 36.1348L3.15144 33.2943ZM7.8101 58.859C7.8101 57.111 9.20769 55.7181 10.9615 55.7181C12.7154 55.7181 14.113 57.111 14.113 58.859C14.113 60.6071 12.7154 62 10.9615 62C9.20769 62 7.8101 60.6071 7.8101 58.859Z" fill="#636363" fill-opacity="0.43"/>
</svg>
